<?xml version="1.0" encoding="utf-8"?>
<!-- Generator: Adobe Illustrator 16.0.0, SVG Export Plug-In . SVG Version: 6.00 Build 0)  -->
<!DOCTYPE svg PUBLIC "-//W3C//DTD SVG 1.1//EN" "http://www.w3.org/Graphics/SVG/1.1/DTD/svg11.dtd">
<svg version="1.1" id="Layer_1" xmlns="http://www.w3.org/2000/svg" xmlns:xlink="http://www.w3.org/1999/xlink" x="0px" y="0px"
	 width="76px" height="6010.01px" viewBox="0 0 76 6010.01" enable-background="new 0 0 76 6010.01" xml:space="preserve">
<path fill="#FFFFFF" d="M42.701,31.6c-0.301,0-0.5-0.1-0.701-0.3l-9-10c-0.3-0.4-0.3-1,0-1.3l9-10c0.4-0.4,1-0.4,1.4-0.1
	c0.396,0.4,0.396,1,0.1,1.4L35,20.6l8.4,9.3c0.396,0.4,0.301,1-0.104,1.4C43.1,31.5,42.9,31.6,42.701,31.6z"/>
<path fill="#FFFFFF" d="M33.7,156.2c0.3,0,0.5,0.1,0.7,0.3l9,10c0.301,0.4,0.301,1,0,1.3l-9,10c-0.4,0.4-1,0.4-1.4,0.1
	c-0.399-0.4-0.399-1-0.1-1.4l8.399-9.3l-8.399-9.3c-0.4-0.4-0.3-1,0.1-1.4C33.2,156.3,33.4,156.2,33.7,156.2z"/>
<path fill="#00B3F0" d="M42.701,343.4c-0.301,0-0.5-0.104-0.701-0.311l-9-10c-0.3-0.396-0.3-1,0-1.3l9-10c0.4-0.396,1-0.396,1.4-0.1
	c0.396,0.396,0.396,1,0.1,1.396l-8.396,9.311l8.396,9.3c0.4,0.396,0.301,1-0.1,1.396C43.1,343.4,42.9,343.4,42.701,343.4z"/>
<path fill="#00B3F0" d="M33.7,468c0.3,0,0.5,0.1,0.7,0.3l9,10c0.301,0.4,0.301,1,0,1.3l-9,10c-0.4,0.4-1,0.4-1.4,0.104
	c-0.399-0.4-0.399-1-0.1-1.4l8.399-9.3l-8.399-9.3c-0.4-0.4-0.3-1.104,0.1-1.4C33.2,468.1,33.4,468,33.7,468z"/>
<g>
	<g>
		<path fill="#00B3F0" d="M38.2,603.3c-1.7,0-3.4,0.2-5,0.7c-0.4,0.1-0.6,0.5-0.5,0.9c0.1,0.396,0.5,0.6,0.9,0.5
			c1.5-0.4,3-0.7,4.6-0.7c8.7,0,15.799,7.1,15.799,15.8s-7.104,15.8-15.799,15.8c-8.7,0-15.8-7.1-15.8-15.8c0-1.7,0.3-3.4,0.8-5.1
			c0.1-0.4-0.1-0.812-0.5-1c-0.4-0.104-0.8,0.1-1,0.5c-0.6,1.8-0.9,3.688-0.9,5.6c0,9.5,7.7,17.2,17.2,17.2s17.201-7.7,17.201-17.2
			C55.4,611,47.701,603.3,38.2,603.3z M39.201,624.8v-7H41.4v-1.5h-6.5v1.5h2.2v7H39.201z"/>
	</g>
</g>
<g>
	<g>
		<path fill="#00B3F0" d="M38.2,765.2c-1.7,0-3.4,0.2-5,0.7c-0.4,0.1-0.6,0.5-0.5,0.896c0.1,0.4,0.5,0.604,0.9,0.5
			c1.5-0.396,3-0.7,4.6-0.7C46.9,766.6,54,773.7,54,782.4c0,8.688-7.1,15.8-15.793,15.8c-8.7,0-15.8-7.104-15.8-15.8
			c0-1.7,0.3-3.4,0.8-5.104c0.101-0.396-0.1-0.8-0.5-1c-0.399-0.1-0.8,0.104-1,0.5c-0.6,1.8-0.899,3.7-0.899,5.604
			c0,9.5,7.699,17.188,17.199,17.188S55.214,791.9,55.214,782.4C55.4,772.9,47.701,765.2,38.2,765.2z M41.1,779.7v-1.5H35.2v8.5
			H41.1v-1.5H37.2V783.1h3.3v-1.5h-3.3v-1.8L41.1,779.7L41.1,779.7z"/>
	</g>
</g>
<polygon fill="#FFFFFF" points="43.8,3087.4 42.8,3086.3 38.2,3090.5 33.5,3086.3 32.5,3087.4 38.2,3092.5 "/>
<polygon fill="#00B3F0" points="43.8,3242.4 42.8,3241.3 38.2,3245.5 33.5,3241.3 32.5,3242.4 38.2,3247.5 "/>
<g>
	<g>
		<g>
			<path fill="#FFFFFF" d="M48.3,1094.5c-0.1-0.4-0.5-0.6-0.899-0.5c-0.396,0.1-0.601,0.5-0.5,0.9
				c0.305,0.896,0.399,1.8,0.399,2.688c0,5.104-4.1,9.2-9.199,9.2c-5.101,0-9.2-4.102-9.2-9.2s4.1-9.188,9.2-9.188
				c1,0,2,0.188,3,0.5c0.396,0.1,0.799-0.104,1-0.5c0.101-0.4-0.104-0.812-0.5-1c-1.104-0.4-2.305-0.604-3.5-0.604
				c-5.9,0-10.801,4.801-10.801,10.801s4.801,10.811,10.801,10.811c5.898,0,10.799-4.811,10.799-10.811
				C48.8,1096.5,48.6,1095.5,48.3,1094.5z M39.1,1093.8c-0.301,0.3-0.301,0.8-0.102,1.104l1.801,2h-7c-0.399,0-0.8,0.3-0.8,0.8
				s0.3,0.8,0.8,0.8h7l-1.801,2c-0.299,0.303-0.299,0.803,0.102,1.104c0.104,0.101,0.301,0.196,0.5,0.196s0.398-0.104,0.604-0.196
				l2.896-3.199c0.301-0.301,0.301-0.7,0-1l-2.896-3.2C39.9,1093.5,39.4,1093.5,39.1,1093.8z"/>
		</g>
	</g>
</g>
<g>
	<g>
		<g>
			<path fill="#FFFFFF" d="M38.2,1227.9c-2.1,0-4.1,0.3-6,0.896c-0.4,0.104-0.6,0.5-0.5,0.9c0.1,0.396,0.5,0.6,0.9,0.5
				c1.8-0.604,3.699-0.802,5.6-0.802c10.6,0,19.2,8.602,19.2,19.19c0,10.604-8.604,19.2-19.2,19.2c-10.599,0-19.2-8.604-19.2-19.2
				c0-2.1,0.3-4.19,1-6.19c0.101-0.398-0.1-0.81-0.5-1c-0.399-0.104-0.8,0.102-1,0.5c-0.7,2.102-1.1,4.396-1.1,6.69
				c0,11.4,9.3,20.81,20.8,20.81C49.6,1269.4,59,1260.1,59,1248.6C58.9,1237.2,49.6,1227.9,38.2,1227.9z M31,1253.5
				c1.3,0.9,2.8,1.4,4.5,1.4c5.4,0,8.4-4.812,8.4-9c0-0.104,0-0.312,0-0.4c0.6-0.5,1.1-1,1.5-1.6c-0.5,0.3-1.104,0.396-1.699,0.5
				c0.6-0.4,1.1-1,1.299-1.7c-0.6,0.399-1.199,0.6-1.896,0.8c-0.5-0.6-1.305-1-2.104-1c-1.6,0-2.896,1.4-2.896,3.2
				c0,0.2,0,0.5,0.1,0.7c-2.399-0.104-4.6-1.4-6.1-3.312c-0.3,0.5-0.4,1-0.4,1.604c0,1.1,0.5,2.1,1.3,2.6
				c-0.5,0-0.899-0.2-1.3-0.396l0,0c0,1.5,1,2.802,2.4,3.102c-0.2,0.104-0.5,0.104-0.8,0.104c-0.2,0-0.4,0-0.601-0.104
				c0.4,1.3,1.5,2.2,2.7,2.2c-1,0.896-2.3,1.396-3.7,1.396C31.5,1253.5,31.2,1253.5,31,1253.5z"/>
		</g>
	</g>
</g>
<g>
	<g>
		<g>
			<path fill="#FFFFFF" d="M39.9,1393.6c0.301,0,1.6,0,1.6,0v-2.396h-2.2c-2.399,0-3,1.8-3,3v1.6h-1.4v2.5h1.4
				c0,3.2,0,7.104,0,7.104h3c0,0,0-3.9,0-7.104h2l0.302-2.5H39.3v-1.5C39.201,1393.7,39.6,1393.6,39.9,1393.6z M38.2,1377.5
				c-2.1,0-4.1,0.3-6,0.9c-0.4,0.1-0.6,0.5-0.5,0.896c0.1,0.4,0.5,0.604,0.9,0.5c1.8-0.5,3.699-0.8,5.6-0.8
				c10.6,0,19.2,8.6,19.2,19.2c0,10.6-8.604,19.189-19.2,19.189c-10.599,0-19.2-8.589-19.2-19.188c0-2.104,0.3-4.2,1-6.2
				c0.101-0.4-0.1-0.8-0.5-0.9c-0.399-0.1-0.8,0.104-1,0.5c-0.7,2.104-1.1,4.4-1.1,6.7c0,11.4,9.3,20.8,20.8,20.8
				c11.399,0,20.799-9.3,20.799-20.8C58.9,1386.8,49.6,1377.5,38.2,1377.5z"/>
		</g>
	</g>
</g>
<g>
	<g>
		<g>
			<path fill="#FFFFFF" d="M39.201,1554.8c-0.701,0.604-1.601,0.9-2.5,1c-1.5,0.104-3-0.5-4-1.6c-1.6-1.9-1.3-4.601,0.7-6.2l1.6-1.2
				l-1.6-1.6l-1.5,1.1c-3,2.312-3.5,6.5-1,9.312c1.399,1.688,3.7,2.6,6,2.396c1.399-0.1,2.701-0.6,3.802-1.396l2.5-1.9l-1.602-1.6
				L39.201,1554.8z M48.701,1550.2c-1.4-2.104-3.301-0.2-3.301-0.2l1.6,1.6L48.701,1550.2z M34,1540.6
				c-0.5-0.5-0.8-1.188-0.899-1.896c0-0.301,0-0.604,0-0.801c0.3-1.399,1.5-2.5,3-2.699c1.899-0.104,3.5,1.199,3.601,3
				c0.1,1.1-0.4,2-1.101,2.699l-1.4,1.101l1.6,1.6l1.102-0.896c1.398-1.104,2.199-2.7,2.103-4.5c0-0.104,0-0.104,0-0.2
				c-0.196-3-3-5.3-6.1-5c-2.101,0.1-3.8,1.4-4.7,3.1c-0.2,0.5-0.4,0.9-0.5,1.5c-0.1,0.4-0.1,0.9-0.1,1.311
				c0.1,1.301,0.699,2.5,1.6,3.396l15.5,15.399c0.5-0.399,0.799-0.899,0.799-1.604c0-0.5-0.197-1-0.5-1.304
				C48.1,1554.7,34.2,1540.8,34,1540.6z"/>
		</g>
	</g>
</g>
<g>
	<g>
		<path fill="#FFFFFF" d="M32.8,1694.1c0.2,0.312,0.5,0.7,0.801,1c0.3,0.312,0.6,0.604,1,0.812c0.3,0.188,0.699,0.396,1.1,0.6
			c0.4,0.2,0.8,0.302,1.2,0.4c0.399,0.1,0.899,0.1,1.3,0.1c0.4,0,0.9-0.1,1.299-0.1c0.396-0.104,0.801-0.2,1.201-0.4
			c0.396-0.198,0.799-0.396,1.1-0.6c0.301-0.2,0.699-0.5,1-0.812c0.301-0.3,0.602-0.6,0.801-1c0.199-0.3,0.398-0.688,0.604-1.1
			c0.196-0.4,0.299-0.8,0.396-1.2c0.104-0.396,0.104-0.896,0.104-1.3s0-0.9-0.104-1.3c-0.102-0.4-0.199-0.8-0.396-1.2
			c-0.201-0.4-0.397-0.8-0.604-1.1c-0.199-0.312-0.5-0.7-0.801-1c-0.301-0.312-0.6-0.604-1-0.812c-0.398-0.188-0.699-0.396-1.1-0.6
			c-0.4-0.2-0.807-0.302-1.201-0.4c-0.4-0.09-0.9-0.09-1.3-0.09c-0.4,0-0.9,0-1.3,0.1c-0.4,0.104-0.8,0.2-1.2,0.4
			c-0.4,0.2-0.8,0.4-1.1,0.6c-0.301,0.2-0.7,0.5-1,0.812c-0.301,0.3-0.601,0.6-0.801,1c-0.199,0.3-0.399,0.688-0.6,1.1
			c-0.2,0.4-0.3,0.801-0.4,1.2c-0.1,0.396-0.1,0.896-0.1,1.3s0,0.9,0.1,1.301c0.101,0.399,0.2,0.81,0.4,1.199
			C32.399,1693.4,32.6,1693.8,32.8,1694.1z M38.2,1696c-1.3,0-2.5-0.4-3.4-1.2l0,0c0,0-0.1,0-0.1-0.1l0.1,0.1
			c0,0,1.101-2.3,4.302-3.5l0,0c0.799,2,1.104,3.7,1.198,4.2C39.701,1695.9,38.9,1696,38.2,1696z M41.3,1695.1
			c-0.1-0.3-0.399-2-1.1-4c1.799-0.3,3.299,0.2,3.396,0.2C43.4,1692.9,42.5,1694.2,41.3,1695.1z M42.4,1687
			c0.801,0.9,1.199,2.1,1.301,3.5c-0.102,0-2-0.4-3.9-0.2c0-0.1-0.1-0.2-0.1-0.3c-0.102-0.3-0.201-0.5-0.4-0.8
			C41.5,1688.3,42.4,1687,42.4,1687z M38.2,1685c1.399,0,2.7,0.5,3.7,1.4c0,0-0.801,1.188-2.9,2c-1-1.7-2-3.104-2.1-3.2
			C37.3,1685,37.7,1685,38.2,1685z M36.8,1685.1L36.8,1685.1L36.8,1685.1L36.8,1685.1z M35.8,1685.5c0.101,0.1,1.101,1.5,2.101,3.2
			c-2.7,0.7-5,0.7-5.101,0.7C33.1,1687.6,34.3,1686.2,35.8,1685.5z M32.6,1690.3c0.1,0,2.8,0.104,5.699-0.8
			c0.2,0.3,0.301,0.6,0.401,0.9c-0.101,0-0.101,0-0.201,0.1c-3,1-4.5,3.6-4.5,3.6l0,0c-0.899-1-1.399-2.3-1.399-3.688
			C32.6,1690.4,32.6,1690.4,32.6,1690.3z M38.2,1669.8c-2.1,0-4.1,0.3-6,0.9c-0.4,0.1-0.6,0.5-0.5,0.899
			c0.1,0.396,0.5,0.601,0.9,0.5c1.8-0.5,3.699-0.811,5.6-0.811c10.6,0,19.2,8.604,19.2,19.2c0,10.596-8.604,19.2-19.2,19.2
			c-10.599,0-19.2-8.596-19.2-19.192c0-2.101,0.3-4.2,1-6.2c0.101-0.396-0.1-0.8-0.5-1c-0.399-0.1-0.8,0.104-1,0.5
			c-0.7,2.104-1.1,4.4-1.1,6.7c0,11.399,9.3,20.8,20.8,20.8c11.399,0,20.799-9.3,20.799-20.8S49.6,1669.8,38.2,1669.8z"/>
	</g>
</g>
<g>
	<g>
		<path fill="#FFFFFF" d="M43.701,1840.3H40.1v1h3.604L43.701,1840.3L43.701,1840.3z M38.8,1845.3c0,1.104,0.302,2,1,2.5
			c0.601,0.5,1.4,0.8,2.199,0.8c1,0,1.801-0.3,2.301-0.896c0.4-0.4,0.601-0.8,0.601-1.104h-1.695C43.1,1846.8,43,1846.9,42.9,1847
			c-0.199,0.2-0.5,0.3-0.9,0.3c-0.396,0-0.6-0.1-0.896-0.198c-0.396-0.302-0.604-0.69-0.604-1.302H45c0-0.5,0-0.896-0.1-1.198
			c-0.104-0.5-0.199-0.896-0.5-1.302c-0.301-0.396-0.604-0.698-1.104-0.896c-0.396-0.2-0.896-0.312-1.5-0.312
			c-0.896,0-1.696,0.312-2.196,0.9C39.1,1843.4,38.8,1844.2,38.8,1845.3z M40.9,1843.7c0.199-0.2,0.6-0.4,1-0.4
			c0.396,0,0.699,0.101,1,0.3c0.301,0.2,0.396,0.604,0.396,1h-2.8C40.5,1844.2,40.701,1843.9,40.9,1843.7z M36.3,1848.2
			c0.4-0.104,0.7-0.2,0.9-0.4c0.2-0.2,0.4-0.399,0.6-0.7c0.2-0.396,0.4-0.8,0.4-1.3s-0.1-0.899-0.3-1.2c-0.2-0.3-0.5-0.6-1-0.688
			c0.3-0.104,0.5-0.312,0.6-0.5c0.3-0.312,0.4-0.7,0.4-1.2s-0.101-0.898-0.4-1.3c-0.399-0.604-1.2-0.9-2.2-0.9h-4.1v8.4H35
			C35.6,1848.4,36,1848.3,36.3,1848.2z M33,1841.4h1.8c0.4,0,0.7,0,1,0.1c0.301,0.1,0.5,0.4,0.5,0.8c0,0.4-0.1,0.604-0.3,0.7
			s-0.5,0.2-0.899,0.2h-2L33,1841.4L33,1841.4z M33,1846.9v-2.2h2.1c0.399,0,0.6,0.1,0.8,0.1c0.399,0.2,0.5,0.5,0.5,0.9
			c0,0.5-0.2,0.899-0.601,1.1c-0.199,0.104-0.5,0.104-0.899,0.104L33,1846.9L33,1846.9z M38.2,1823.5c-2.1,0-4.1,0.3-6,0.9
			c-0.4,0.1-0.6,0.5-0.5,0.896c0.1,0.4,0.5,0.604,0.9,0.5c1.8-0.5,3.699-0.8,5.6-0.8c10.6,0,19.2,8.6,19.2,19.2
			c0,10.6-8.604,19.189-19.2,19.189c-10.599,0-19.2-8.589-19.2-19.188c0-2.104,0.3-4.2,1-6.2c0.101-0.4-0.1-0.8-0.5-0.9
			c-0.399-0.1-0.8,0.104-1,0.5c-0.7,2.104-1.1,4.4-1.1,6.7c0,11.4,9.3,20.8,20.8,20.8c11.399,0,20.799-9.3,20.799-20.8
			C58.9,1832.8,49.6,1823.5,38.2,1823.5z"/>
	</g>
</g>
<g>
	<g>
		<g>
			<path fill="#00B0ED" d="M38.2,1989.3c-2.1,0-4.1,0.3-6,0.9c-0.4,0.1-0.6,0.5-0.5,0.899c0.1,0.396,0.5,0.601,0.9,0.5
				c1.8-0.5,3.699-0.811,5.6-0.811c10.6,0,19.2,8.604,19.2,19.2c0,10.596-8.604,19.2-19.2,19.2c-10.599,0-19.2-8.596-19.2-19.192
				c0-2.101,0.3-4.2,1-6.2c0.101-0.396-0.1-0.8-0.5-1c-0.399-0.1-0.8,0.104-1,0.5c-0.7,2.104-1.1,4.4-1.1,6.7
				c0,11.399,9.3,20.8,20.8,20.8c11.399,0,20.799-9.3,20.799-20.8C58.9,1998.6,49.6,1989.3,38.2,1989.3z M31,2014.9
				c1.3,0.896,2.8,1.396,4.5,1.396c5.4,0,8.4-4.8,8.4-9c0-0.1,0-0.3,0-0.396c0.6-0.5,1.1-1,1.5-1.604
				c-0.5,0.301-1.104,0.4-1.699,0.5c0.6-0.396,1.1-1,1.299-1.8c-0.6,0.396-1.199,0.6-1.896,0.8c-0.5-0.6-1.305-1-2.104-1
				c-1.6,0-2.896,1.4-2.896,3.2c0,0.2,0,0.5,0.1,0.7c-2.399-0.104-4.6-1.4-6.1-3.311c-0.3,0.5-0.4,1-0.4,1.604
				c0,1.1,0.5,2.1,1.3,2.6c-0.5,0-0.899-0.1-1.3-0.396l0,0c0,1.5,1,2.801,2.4,3.101c-0.2,0.101-0.5,0.101-0.8,0.101
				c-0.2,0-0.4,0-0.601-0.101c0.4,1.3,1.5,2.2,2.7,2.2c-1,0.896-2.3,1.396-3.7,1.396C31.5,2014.9,31.2,2014.9,31,2014.9z"/>
		</g>
	</g>
</g>
<g>
	<g>
		<g>
			<path fill="#3B5998" d="M39.9,2155.1c0.301,0,1.6,0,1.6,0v-2.396h-2.2c-2.399,0-3,1.8-3,3v1.604h-1.4v2.5h1.4
				c0,3.188,0,7.1,0,7.1h3c0,0,0-3.9,0-7.1h2l0.302-2.5H39.3v-1.5C39.201,2155.2,39.6,2155.1,39.9,2155.1z M38.2,2139
				c-2.1,0-4.1,0.3-6,0.9c-0.4,0.1-0.6,0.5-0.5,0.896c0.1,0.396,0.5,0.604,0.9,0.5c1.8-0.5,3.699-0.8,5.6-0.8
				c10.6,0,19.2,8.6,19.2,19.195c0,10.604-8.604,19.193-19.2,19.193c-10.599,0-19.2-8.6-19.2-19.193c0-2.104,0.3-4.195,1-6.195
				c0.101-0.4-0.1-0.805-0.5-1c-0.399-0.104-0.8,0.1-1,0.5c-0.7,2.1-1.1,4.396-1.1,6.695c0,11.396,9.3,20.805,20.8,20.805
				c11.399,0,20.799-9.305,20.799-20.805S49.6,2139,38.2,2139z"/>
		</g>
	</g>
</g>
<g>
	<g>
		<path fill="#EA4C89" d="M32.8,2311.8c0.2,0.3,0.5,0.7,0.801,1c0.3,0.3,0.6,0.604,1,0.8c0.3,0.2,0.699,0.4,1.1,0.604
			c0.4,0.2,0.8,0.3,1.2,0.396c0.399,0.104,0.899,0.104,1.3,0.104c0.4,0,0.9,0,1.299-0.104c0.396-0.1,0.801-0.188,1.201-0.396
			c0.396-0.2,0.799-0.396,1.1-0.604c0.301-0.188,0.699-0.5,1-0.8s0.602-0.6,0.801-1c0.199-0.3,0.398-0.7,0.604-1.1
			c0.196-0.4,0.299-0.8,0.396-1.2c0.104-0.4,0.104-0.9,0.104-1.3c0-0.4,0-0.9-0.104-1.3c-0.102-0.4-0.199-0.812-0.396-1.2
			c-0.201-0.4-0.397-0.8-0.604-1.104c-0.199-0.3-0.5-0.695-0.801-1c-0.301-0.3-0.6-0.6-1-0.8c-0.398-0.2-0.699-0.396-1.1-0.604
			c-0.4-0.188-0.807-0.3-1.201-0.396c-0.398-0.104-0.898-0.104-1.299-0.104c-0.401,0-0.9,0-1.3,0.104s-0.8,0.2-1.2,0.396
			c-0.4,0.2-0.8,0.4-1.1,0.604c-0.301,0.2-0.7,0.5-1,0.8c-0.301,0.305-0.601,0.604-0.801,1c-0.199,0.305-0.399,0.7-0.6,1.104
			c-0.2,0.396-0.3,0.8-0.4,1.2c-0.1,0.396-0.1,0.896-0.1,1.3c0,0.396,0,0.896,0.1,1.3c0.101,0.4,0.2,0.8,0.4,1.2
			C32.4,2311.1,32.6,2311.4,32.8,2311.8z M38.2,2313.7c-1.3,0-2.5-0.4-3.4-1.2l0,0c0,0-0.1,0-0.1-0.1l0.1,0.1
			c0,0,1.101-2.3,4.302-3.5l0,0c0.799,2,1.104,3.7,1.198,4.2C39.701,2313.5,38.9,2313.7,38.2,2313.7z M41.3,2312.8
			c-0.1-0.3-0.399-2-1.1-4c1.799-0.3,3.299,0.2,3.396,0.2C43.4,2310.6,42.5,2311.9,41.3,2312.8z M42.4,2304.6
			c0.801,0.9,1.199,2.104,1.301,3.5c-0.102,0-2-0.396-3.9-0.188c0-0.104-0.1-0.2-0.1-0.312c-0.102-0.3-0.201-0.5-0.4-0.8
			C41.5,2305.9,42.4,2304.7,42.4,2304.6z M38.2,2302.6c1.399,0,2.7,0.5,3.7,1.4c0,0-0.801,1.2-2.9,2c-1-1.7-2-3.1-2.1-3.2
			C37.3,2302.7,37.7,2302.6,38.2,2302.6z M36.8,2302.8L36.8,2302.8L36.8,2302.8L36.8,2302.8z M35.8,2303.2
			c0.101,0.1,1.101,1.5,2.101,3.2c-2.7,0.688-5,0.688-5.101,0.688C33.1,2305.3,34.3,2303.9,35.8,2303.2z M32.6,2308
			c0.1,0,2.8,0.1,5.699-0.8c0.2,0.3,0.301,0.6,0.401,0.896c-0.101,0-0.101,0-0.201,0.104c-3,1-4.5,3.6-4.5,3.6l0,0
			c-0.899-1-1.399-2.3-1.399-3.7V2308z M38.2,2287.4c-2.1,0-4.1,0.3-6,0.896c-0.4,0.104-0.6,0.5-0.5,0.896
			c0.1,0.4,0.5,0.604,0.9,0.5c1.8-0.5,3.699-0.8,5.6-0.8c10.6,0,19.2,8.604,19.2,19.2s-8.604,19.2-19.2,19.2
			c-10.599,0-19.2-8.604-19.2-19.2c0-2.1,0.3-4.2,1-6.2c0.101-0.396-0.1-0.8-0.5-1c-0.399-0.1-0.8,0.104-1,0.5
			c-0.7,2.104-1.1,4.4-1.1,6.7c0,11.4,9.3,20.8,20.8,20.8c11.399,0,20.799-9.3,20.799-20.8S49.6,2287.4,38.2,2287.4z"/>
	</g>
</g>
<g>
	<g>
		<path fill="#1769FF" d="M43.701,2458H40.1v1h3.604L43.701,2458L43.701,2458z M38.8,2463c0,1.1,0.302,2,1,2.5
			c0.601,0.5,1.4,0.8,2.199,0.8c1,0,1.801-0.3,2.301-0.896c0.4-0.4,0.601-0.805,0.601-1.104h-1.695c-0.104,0.2-0.201,0.3-0.305,0.4
			c-0.195,0.2-0.5,0.3-0.896,0.3s-0.604-0.1-0.896-0.2c-0.396-0.3-0.604-0.7-0.604-1.3H45c0-0.5,0-0.9-0.1-1.2
			c-0.104-0.5-0.199-0.896-0.5-1.3c-0.301-0.4-0.604-0.7-1.104-0.9c-0.396-0.188-0.896-0.3-1.5-0.3c-0.896,0-1.696,0.3-2.196,0.9
			C39.1,2461,38.8,2461.9,38.8,2463z M40.9,2461.3c0.199-0.2,0.6-0.396,1-0.396c0.396,0,0.699,0.1,1,0.3s0.396,0.604,0.396,1h-2.8
			C40.5,2461.9,40.701,2461.5,40.9,2461.3z M36.3,2465.9c0.4-0.104,0.7-0.2,0.9-0.4c0.2-0.2,0.4-0.4,0.6-0.7
			c0.2-0.396,0.4-0.8,0.4-1.3s-0.1-0.9-0.3-1.2c-0.2-0.3-0.5-0.6-1-0.7c0.3-0.1,0.5-0.3,0.6-0.5c0.3-0.3,0.4-0.688,0.4-1.188
			s-0.101-0.897-0.4-1.312c-0.399-0.6-1.2-0.896-2.2-0.896h-4.1v8.396H35C35.6,2466,36,2466,36.3,2465.9z M33,2459h1.8
			c0.4,0,0.7,0,1,0.1c0.301,0.104,0.5,0.4,0.5,0.812c0,0.396-0.1,0.603-0.3,0.688c-0.2,0.104-0.5,0.2-0.899,0.2h-2L33,2459L33,2459z
			 M33,2464.5v-2.2h2.1c0.399,0,0.6,0.104,0.8,0.104c0.399,0.195,0.5,0.5,0.5,0.896c0,0.5-0.2,0.9-0.601,1.104
			c-0.199,0.1-0.5,0.1-0.899,0.1L33,2464.5L33,2464.5z M38.2,2441.1c-2.1,0-4.1,0.312-6,0.9c-0.4,0.1-0.6,0.5-0.5,0.9
			c0.1,0.396,0.5,0.6,0.9,0.5c1.8-0.5,3.699-0.812,5.6-0.812c10.6,0,19.2,8.604,19.2,19.2c0,10.604-8.604,19.197-19.2,19.197
			c-10.599,0-19.2-8.604-19.2-19.197c0-2.104,0.3-4.2,1-6.2c0.101-0.396-0.1-0.8-0.5-1c-0.399-0.103-0.8,0.104-1,0.5
			c-0.7,2.104-1.1,4.397-1.1,6.7c0,11.396,9.3,20.8,20.8,20.8c11.399,0,20.799-9.3,20.799-20.8C58.9,2450.5,49.6,2441.1,38.2,2441.1
			z"/>
	</g>
</g>
<path fill="#7CDCFD" d="M38.2,2620c3.299,0,6,2.7,6,6s-2.701,6-6,6c-3.3,0-6-2.7-6-6S34.9,2620,38.2,2620z"/>
<path fill="#007CF0" d="M38.2,2770.4c3.299,0,6,2.688,6,6c0,3.3-2.701,6-6,6c-3.3,0-6-2.7-6-6C32.2,2773.1,34.9,2770.4,38.2,2770.4z
	"/>
<path fill="#DCDCDC" d="M38.15,5230.354c2.749,0,5,2.252,5,5c0,2.75-2.252,5-5,5c-2.75,0-5-2.25-5-5
	C33.15,5232.605,35.4,5230.354,38.15,5230.354z"/>
<path fill="#9B9B9B" d="M38.15,5380.754c2.749,0,5,2.249,5,5c0,2.749-2.252,4.999-5,4.999c-2.75,0-5-2.25-5-4.999
	C33.15,5383.003,35.4,5380.754,38.15,5380.754z"/>
<path fill="#007CF0" d="M38.2,2912.5c3.299,0,6,2.7,6,6s-2.701,6-6,6c-3.3,0-6-2.7-6-6S34.9,2912.5,38.2,2912.5z"/>
<g>
	<g>
		<path fill="#FFFFFF" d="M30.2,3557.2H46.1c0.604,0,1-0.4,1-1c0-0.604-0.396-1-1-1H30.2c-0.6,0-1,0.396-1,1
			C29.2,3556.7,29.6,3557.2,30.2,3557.2z M46.1,3559.7H30.2c-0.6,0-1,0.396-1,1c0,0.6,0.4,1,1,1H46.1c0.604,0,1-0.4,1-1
			C47.1,3560.1,46.701,3559.7,46.1,3559.7z M46.1,3564H30.2c-0.6,0-1,0.4-1,1s0.4,1,1,1H46.1c0.604,0,1-0.4,1-1
			C47.1,3564.5,46.701,3564,46.1,3564z"/>
	</g>
</g>
<g>
	<path fill="#FFFFFF" d="M38.2,3731.1c-1.7,0-3.3,0.2-4.9,0.7l0.4,1.4c1.4-0.4,2.9-0.604,4.4-0.604
		c8.398,0,15.199,6.805,15.199,15.2S46.5,3763,38.1,3763s-15.2-6.801-15.2-15.2c0-1.7,0.3-3.3,0.8-4.896l-1.4-0.5
		c-0.6,1.695-0.899,3.6-0.899,5.396c0,9.2,7.5,16.8,16.8,16.8c9.199,0,16.799-7.5,16.799-16.8S47.4,3731.1,38.2,3731.1z"/>
	<polygon fill="#FFFFFF" points="43.8,3746.9 42.8,3745.8 38.2,3750 33.5,3745.8 32.5,3746.9 38.2,3752 	"/>
</g>
<circle opacity="0.3" enable-background="new    " cx="38.2" cy="3916.5" r="23.5"/>
<path fill="#FFFFFF" d="M43.8,4132.2c-0.399-0.399-1.1-0.5-1.5-0.101l-1.8,1.601c0,0-0.1,0-0.199,0c-0.301,0-1.1-0.2-2.396-1.8
	l-1.7-1.9c-1.399-1.396-1.6-2.299-1.399-2.799c0.199-0.101,0.6-0.5,1.8-1.601c0.2-0.2,0.3-0.399,0.399-0.7c0-0.3-0.1-0.6-0.3-0.8
	l-3.399-3.899c-0.4-0.396-1.101-0.5-1.5-0.101l-1.9,1.7l-0.1,0.1c-1.301,1.604-0.9,3.9-0.801,4.701c0.4,2.5,3,5.699,4.5,7.5
	c1.5,1.699,4.4,4.699,6.795,5.399c0.4,0.101,1.4,0.399,2.5,0.399c0.9,0,1.699-0.199,2.306-0.604l2-1.7
	c0.194-0.2,0.304-0.396,0.396-0.7c0-0.3-0.102-0.604-0.299-0.8L43.8,4132.2z M44.5,4138.2c-0.396,0.3-1,0.399-1.6,0.399
	c-0.801,0-1.5-0.199-2.104-0.399c-2.3-0.601-5.3-4-6.3-5c-0.899-1-3.8-4.5-4.2-6.8c-0.1-0.7-0.399-2.6,0.5-3.8l1.7-1.5l3.2,3.601
	c-0.4,0.399-1.7,1.5-1.7,1.604l-0.1,0.104c-0.4,0.601-0.7,2,1.6,4.301l1.601,1.799c1.199,1.5,2.297,2.301,3.297,2.301
	c0.304,0,0.5-0.104,0.804-0.201l0.1-0.104c0,0,1.4-1.2,1.81-1.5l3.19,3.604L44.5,4138.2z"/>
<path fill="#FFFFFF" d="M49.1,4309.4c-0.199-0.104-0.5-0.201-0.699-0.104l-21,11c-0.2,0.104-0.4,0.396-0.3,0.604
	c0,0.199,0.199,0.5,0.399,0.5l8.101,2.799v6.396c0,0.3,0.199,0.5,0.399,0.604c0.101,0,0.101,0,0.2,0c0.2,0,0.4-0.104,0.5-0.199l4-5
	l4.692,1.6c0.104,0,0.104,0,0.195,0c0.1,0,0.195,0,0.305-0.1c0.195-0.104,0.308-0.201,0.308-0.4l3.198-17.1
	C49.3,4309.8,49.3,4309.6,49.1,4309.4z M36.8,4328.9v-4.201l2.601,0.896L36.8,4328.9z M45,4326.3l-7.7-2.601l7.802-8.104
	c0.198-0.2,0.198-0.604,0-0.896c-0.201-0.199-0.603-0.199-0.896,0l-8.201,8.5l-6.7-2.299l18.603-9.701L45,4326.3z"/>
<path fill="#00B3F0" d="M46.973,5962.707c-0.183-0.096-0.459-0.186-0.642-0.096l-19.278,10.098
	c-0.184,0.098-0.368,0.363-0.276,0.557c0,0.183,0.183,0.459,0.366,0.459l7.437,2.567v5.872c0,0.273,0.183,0.459,0.367,0.555
	c0.093,0,0.093,0,0.184,0c0.183,0,0.368-0.096,0.459-0.183l3.672-4.59l4.309,1.468c0.096,0,0.096,0,0.181,0
	c0.09,0,0.179,0,0.278-0.091c0.181-0.097,0.281-0.187,0.281-0.368l2.938-15.698C47.156,5963.073,47.156,5962.891,46.973,5962.707z
	 M35.681,5980.607v-3.855l2.387,0.82L35.681,5980.607z M43.209,5978.221l-7.069-2.388l7.163-7.438c0.182-0.185,0.182-0.556,0-0.822
	c-0.185-0.184-0.554-0.184-0.824,0l-7.528,7.803l-6.15-2.108l17.077-8.905L43.209,5978.221z"/>
<g>
	<path fill="#FFFFFF" d="M38.2,947.8"/>
	<path fill="#FFFFFF" d="M38.2,964c-9.2,0-16.8-7.5-16.8-16.8c0-1.8,0.3-3.7,0.899-5.4c0.101-0.396,0.5-0.5,0.9-0.396
		c0.4,0.1,0.5,0.5,0.4,0.896c-0.5,1.604-0.801,3.3-0.801,5c0,8.5,6.9,15.4,15.4,15.4s15.399-6.9,15.399-15.4
		S46.701,931.9,38.2,931.9c-1.5,0-3,0.188-4.5,0.688c-0.4,0.104-0.7-0.1-0.8-0.5c-0.101-0.396,0.1-0.688,0.5-0.8
		c1.6-0.5,3.2-0.7,4.899-0.7c9.2,0,16.801,7.5,16.801,16.812C55.1,956.7,47.4,964,38.2,964z"/>
</g>
<g>
	<path fill="#00B3F0" d="M38.2,3391.1"/>
	<path fill="#00B3F0" d="M38.2,3407.4c-9.2,0-16.8-7.5-16.8-16.812c0-1.896,0.3-3.688,0.899-5.396c0.101-0.398,0.5-0.5,0.9-0.398
		c0.4,0.104,0.5,0.5,0.4,0.898c-0.5,1.602-0.801,3.302-0.801,5c0,8.5,6.9,15.396,15.4,15.396s15.399-6.896,15.399-15.396
		s-6.898-15.398-15.399-15.398c-1.5,0-3,0.2-4.5,0.7c-0.4,0.103-0.7-0.104-0.8-0.5c-0.101-0.397,0.1-0.7,0.5-0.802
		c1.6-0.5,3.2-0.698,4.899-0.698c9.2,0,16.801,7.5,16.801,16.8C55.1,3400.1,47.4,3407.4,38.2,3407.4z"/>
</g>
<g>
	<path fill="#00B3F0" d="M38.2,5541.271"/>
</g>
<path fill="#DCDCDC" d="M49.201,4573.3c0-0.3-0.102-0.5-0.301-0.7l-10-8.9c-0.4-0.299-1-0.299-1.3,0l-10,8.9
	c-0.4,0.4-0.4,1-0.101,1.4c0.4,0.396,1,0.396,1.4,0.1l9.3-8.3l9.299,8.3c0.396,0.4,1,0.3,1.396-0.1
	C49.1,4573.7,49.201,4573.5,49.201,4573.3z"/>
<path fill="#DCDCDC" d="M27.2,4836.8c0,0.3,0.1,0.5,0.3,0.7l10,8.9c0.4,0.299,1,0.299,1.3,0l10-8.9c0.4-0.4,0.4-1,0.101-1.4
	c-0.299-0.396-1-0.396-1.396-0.1l-9.293,8.3l-9.3-8.3c-0.4-0.4-1-0.3-1.4,0.1C27.3,4836.3,27.2,4836.5,27.2,4836.8z"/>
<polygon fill="#FFFFFF" points="32.5,5045.45 33.5,5046.551 38.099,5042.352 42.8,5046.551 43.8,5045.45 38.099,5040.352 "/>
<path fill="#00B3F0" d="M37.22,5535.367l-1.082,0.977l4.067,4.529l-4.067,4.531l1.082,0.976l4.94-5.507L37.22,5535.367z"/>
<path fill="#00B3F0" d="M39.93,5793.036l1.082-0.978l-4.067-4.528l4.067-4.53l-1.082-0.977l-4.938,5.507L39.93,5793.036z"/>
<g>
	<g>
		<g>
			<path fill="#FFFFFF" d="M48.352,5662.5c-0.102-0.4-0.5-0.6-0.897-0.5c-0.399,0.1-0.603,0.5-0.5,0.9
				c0.301,0.896,0.397,1.799,0.397,2.688c0,5.104-4.102,9.2-9.202,9.2s-9.2-4.104-9.2-9.2s4.1-9.188,9.2-9.188c1,0,2,0.188,3,0.5
				c0.396,0.1,0.801-0.104,1-0.5c0.102-0.4-0.104-0.812-0.5-1c-1.104-0.4-2.299-0.604-3.5-0.604c-5.9,0-10.8,4.801-10.8,10.801
				s4.8,10.804,10.8,10.804c5.899,0,10.801-4.804,10.801-10.804C48.852,5664.5,48.65,5663.5,48.352,5662.5z M37.276,5669.615
				c0.299-0.3,0.299-0.8,0.1-1.104l-1.801-2h7c0.399,0,0.801-0.301,0.801-0.801s-0.301-0.799-0.801-0.799h-7l1.801-2
				c0.299-0.31,0.299-0.81-0.1-1.104c-0.103-0.101-0.301-0.196-0.5-0.196c-0.201,0-0.4,0.104-0.603,0.196l-2.897,3.199
				c-0.301,0.301-0.301,0.7,0,1l2.897,3.2C36.475,5669.915,36.975,5669.915,37.276,5669.615z"/>
		</g>
	</g>
</g>
<g>
	<path fill="none" stroke="#00B3F0" stroke-width="1.5" stroke-linecap="round" stroke-linejoin="round" stroke-miterlimit="10" d="
		M38,5973.664"/>
	<path fill="none" stroke="#00B3F0" stroke-width="1.5" stroke-linecap="round" stroke-linejoin="round" stroke-miterlimit="10" d="
		M28.856,5942.494c2.895-0.875,5.962-1.348,9.144-1.348c17.396,0,31.5,14.103,31.5,31.5c0,17.396-14.104,31.5-31.5,31.5
		c-17.396,0-31.5-14.104-31.5-31.5c0-3.555,0.59-6.975,1.676-10.16"/>
</g>
</svg>
