<?xml version="1.0" encoding="utf-8"?>
<!-- Generator: Adobe Illustrator 16.2.1, SVG Export Plug-In . SVG Version: 6.00 Build 0)  -->
<!DOCTYPE svg PUBLIC "-//W3C//DTD SVG 1.1//EN" "http://www.w3.org/Graphics/SVG/1.1/DTD/svg11.dtd">
<svg version="1.1" id="Layer_2" xmlns="http://www.w3.org/2000/svg" xmlns:xlink="http://www.w3.org/1999/xlink" x="0px" y="0px"
	 width="400px" height="400px" viewBox="0 0 400 400" enable-background="new 0 0 400 400" xml:space="preserve">
<g>
	<path fill="#FFFFFF" d="M200.004,400C89.714,400,0,310.273,0,199.993C0,89.714,89.713,0,200.004,0
		C310.285,0,400,89.714,400,199.993C400,310.273,310.285,400,200.004,400z M200.004,13.708c-102.729,0-186.29,83.556-186.29,186.284
		c0,102.719,83.561,186.292,186.29,186.292c102.709,0,186.278-83.572,186.278-186.292C386.282,97.264,302.714,13.708,200.004,13.708
		z"/>
	<path fill="#FFFFFF" d="M92.95,162.23c-3.791,0-6.867-3.068-6.867-6.873v-35.944c0-3.786,3.076-6.854,6.867-6.854h88.118
		c3.791,0,6.864,3.068,6.864,6.854c0,3.799-3.073,6.868-6.864,6.868H99.805v29.077C99.805,159.162,96.718,162.23,92.95,162.23z"/>
	<path fill="#FFFFFF" d="M132.23,297.836c-16.676,0-32.343-6.51-44.136-18.27c-2.681-2.705-2.681-7.039,0-9.73
		c2.687-2.65,7.021-2.65,9.712,0c18.971,19.02,49.852,19.02,68.859,0c18.978-18.96,18.958-49.85-0.024-68.861
		c-18.983-18.956-49.864-18.956-68.835,0c-2.692,2.688-7.026,2.688-9.712,0c-2.681-2.672-2.681-7.021,0-9.685
		c11.793-11.79,27.46-18.265,44.136-18.265c16.663,0,32.341,6.475,44.133,18.265c24.325,24.349,24.325,63.933,0,88.276
		C164.572,291.325,148.893,297.836,132.23,297.836z"/>
	<path fill="#FFFFFF" d="M256.396,297.836c-16.668,0-32.332-6.51-44.141-18.27c-2.652-2.705-2.652-7.039,0-9.73
		c2.695-2.65,7.044-2.65,9.729,0c9.192,9.219,21.42,14.277,34.412,14.277c13.008,0,25.232-5.059,34.443-14.277
		c18.967-18.96,18.967-49.85,0-68.861c-2.367-2.353-5.031-4.485-7.818-6.34c-3.18-2.073-4.065-6.35-1.977-9.493
		c2.08-3.17,6.324-4.05,9.479-1.967c3.6,2.36,6.951,5.089,10.006,8.115c24.324,24.349,24.324,63.933,0,88.276
		C288.734,291.325,273.057,297.836,256.396,297.836z"/>
	<path fill="#FFFFFF" d="M235.333,204.789c-1.742,0-3.513-0.674-4.853-1.999c-2.684-2.673-2.684-7.013-0.023-9.707l66.408-66.802
		h-86.861c-3.814,0-6.863-3.069-6.863-6.868c0-3.786,3.049-6.854,6.863-6.854h103.344c2.763,0,5.271,1.661,6.326,4.23
		c1.072,2.558,0.481,5.491-1.447,7.488l-78.035,78.466C238.866,204.1,237.091,204.789,235.333,204.789z"/>
</g>
</svg>
